<svg xmlns="http://www.w3.org/2000/svg" version="1.1" xmlns:xlink="http://www.w3.org/1999/xlink" width="1000" height="1000"><style>
    #light-icon {
      display: inline;
    }
    #dark-icon {
      display: none;
    }

    @media (prefers-color-scheme: dark) {
      #light-icon {
        display: none;
      }
      #dark-icon {
        display: inline;
      }
    }
  </style><g id="light-icon"><svg xmlns="http://www.w3.org/2000/svg" version="1.1" xmlns:xlink="http://www.w3.org/1999/xlink" width="1000" height="1000"><g><g transform="matrix(31.25,0,0,31.25,0,0)"><svg xmlns="http://www.w3.org/2000/svg" width="32" height="32" viewBox="0 0 32 32" fill="none"><path d="M5 4.5C5 3.67157 5.67157 3 6.5 3H25.5C26.3284 3 27 3.67157 27 4.5V28.5C27 29.3284 26.3284 30 25.5 30H6.5C5.67157 30 5 29.3284 5 28.5V4.5Z" fill="#E19747"></path><path d="M25 6C25 5.44772 24.5523 5 24 5H8C7.44772 5 7 5.44772 7 6V27C7 27.5523 7.44772 28 8 28H18.5858C18.7327 28 18.8764 27.9677 19.0071 27.9069L19.3282 27.1239L19.96 23.0379L24.4166 22.255L24.9064 22.0082C24.9675 21.8772 25 21.7332 25 21.5858V6Z" fill="#F3EEF8"></path><path d="M24.9102 22H20C19.4477 22 19 22.4477 19 23V27.9102C19.108 27.861 19.2074 27.7926 19.2929 27.7071L24.7071 22.2929C24.7926 22.2074 24.861 22.108 24.9102 22Z" fill="#CDC4D6"></path><path d="M18 4C18 2.89543 17.1046 2 16 2C14.8954 2 14 2.89543 14 4H13C11.8954 4 11 4.89543 11 6V7.5C11 7.77614 11.2239 8 11.5 8H20.5C20.7761 8 21 7.77614 21 7.5V6C21 4.89543 20.1046 4 19 4H18ZM17 4C17 4.55228 16.5523 5 16 5C15.4477 5 15 4.55228 15 4C15 3.44772 15.4477 3 16 3C16.5523 3 17 3.44772 17 4Z" fill="#9B9B9B"></path><path d="M9 12.5C9 12.2239 9.22386 12 9.5 12H22.5C22.7761 12 23 12.2239 23 12.5C23 12.7761 22.7761 13 22.5 13H9.5C9.22386 13 9 12.7761 9 12.5Z" fill="#9B9B9B"></path><path d="M9 15.5C9 15.2239 9.22386 15 9.5 15H22.5C22.7761 15 23 15.2239 23 15.5C23 15.7761 22.7761 16 22.5 16H9.5C9.22386 16 9 15.7761 9 15.5Z" fill="#9B9B9B"></path><path d="M9.5 18C9.22386 18 9 18.2239 9 18.5C9 18.7761 9.22386 19 9.5 19H22.5C22.7761 19 23 18.7761 23 18.5C23 18.2239 22.7761 18 22.5 18H9.5Z" fill="#9B9B9B"></path><path d="M9 21.5C9 21.2239 9.22386 21 9.5 21H17.5C17.7761 21 18 21.2239 18 21.5C18 21.7761 17.7761 22 17.5 22H9.5C9.22386 22 9 21.7761 9 21.5Z" fill="#9B9B9B"></path></svg></g></g></svg></g><g id="dark-icon"><svg xmlns="http://www.w3.org/2000/svg" version="1.1" xmlns:xlink="http://www.w3.org/1999/xlink" width="1000" height="1000"><g><g transform="matrix(1.953125,0,0,1.953125,0,0)"><svg xmlns="http://www.w3.org/2000/svg" width="512" height="512" viewBox="0 0 512 512" fill="none"><path d="M57 48.0556C57 33.1131 69.1188 21 84.0682 21H426.932C441.881 21 454 33.1131 454 48.0556V480.944C454 495.886 441.881 508 426.932 508H84.0682C69.1188 508 57 495.886 57 480.944V48.0556Z" fill="#E19747"></path><path d="M418 75.0435C418 65.0784 409.917 57 399.944 57H111.056C101.084 57 93 65.0784 93 75.0435V453.957C93 463.922 101.084 472 111.056 472H302.188C304.84 472 307.435 471.417 309.795 470.32L315.592 456.192L327 382.466L407.466 368.34L416.31 363.887C417.413 361.523 418 358.925 418 356.266V75.0435Z" fill="#F3EEF8"></path><path d="M416 364H327.935C318.03 364 310 372.105 310 382.104V471C311.937 470.109 313.72 468.871 315.253 467.323L412.357 369.303C413.891 367.755 415.118 365.955 416 364Z" fill="#CDC4D6"></path><path d="M291.7 39C291.7 19.1177 275.493 3 255.5 3C235.507 3 219.3 19.1177 219.3 39H201.2C181.207 39 165 55.1177 165 75V102C165 106.971 169.053 111 174.05 111H336.95C341.947 111 346 106.971 346 102V75C346 55.1177 329.793 39 309.8 39H291.7ZM273.6 39C273.6 48.941 265.497 57 255.5 57C245.503 57 237.4 48.941 237.4 39C237.4 29.059 245.503 21 255.5 21C265.497 21 273.6 29.059 273.6 39Z" fill="#9B9B9B"></path><path d="M129 192C129 187.03 133.045 183 138.036 183H372.964C377.954 183 382 187.03 382 192C382 196.97 377.954 201 372.964 201H138.036C133.045 201 129 196.97 129 192Z" fill="#9B9B9B"></path><path d="M129 247C129 242.03 133.045 238 138.036 238H372.964C377.954 238 382 242.03 382 247C382 251.97 377.954 256 372.964 256H138.036C133.045 256 129 251.97 129 247Z" fill="#9B9B9B"></path><path d="M138.036 292C133.045 292 129 296.03 129 301C129 305.97 133.045 310 138.036 310H372.964C377.954 310 382 305.97 382 301C382 296.03 377.954 292 372.964 292H138.036Z" fill="#9B9B9B"></path><path d="M129 355C129 350.03 133.054 346 138.056 346H282.944C287.945 346 292 350.03 292 355C292 359.97 287.945 364 282.944 364H138.056C133.054 364 129 359.97 129 355Z" fill="#9B9B9B"></path></svg></g></g></svg></g></svg>